<mxfile host="65bd71144e" scale="1" border="1">
    <diagram id="aDgvGPoce8DHz0e_g1gJ" name="Page-1">
        <mxGraphModel dx="3121" dy="1300" grid="1" gridSize="10" guides="1" tooltips="1" connect="1" arrows="1" fold="1" page="1" pageScale="1" pageWidth="1169" pageHeight="827" background="#ffffff" math="0" shadow="1">
            <root>
                <mxCell id="0"/>
                <mxCell id="1" parent="0"/>
                <mxCell id="174" value="" style="edgeStyle=none;html=1;" parent="1" source="171" target="173" edge="1">
                    <mxGeometry relative="1" as="geometry"/>
                </mxCell>
                <mxCell id="175" value="phoneNumber" style="edgeLabel;html=1;align=center;verticalAlign=middle;resizable=0;points=[];" parent="174" vertex="1" connectable="0">
                    <mxGeometry x="-0.0547" relative="1" as="geometry">
                        <mxPoint as="offset"/>
                    </mxGeometry>
                </mxCell>
                <mxCell id="190" value="1" style="edgeLabel;html=1;align=center;verticalAlign=middle;resizable=0;points=[];labelBackgroundColor=#FF8000;" parent="174" vertex="1" connectable="0">
                    <mxGeometry x="-0.6234" y="-1" relative="1" as="geometry">
                        <mxPoint x="-14" as="offset"/>
                    </mxGeometry>
                </mxCell>
                <mxCell id="171" value="User" style="shape=umlActor;verticalLabelPosition=bottom;verticalAlign=top;html=1;outlineConnect=0;" parent="1" vertex="1">
                    <mxGeometry x="-2090" y="-600" width="80" height="140" as="geometry"/>
                </mxCell>
                <mxCell id="193" style="edgeStyle=none;html=1;rounded=0;curved=0;entryX=0.222;entryY=0.133;entryDx=0;entryDy=0;entryPerimeter=0;strokeWidth=2;strokeColor=#FF0000;" parent="1" source="173" target="171" edge="1">
                    <mxGeometry relative="1" as="geometry">
                        <mxPoint x="-2100" y="-580" as="targetPoint"/>
                        <Array as="points">
                            <mxPoint x="-1790" y="-280"/>
                            <mxPoint x="-2160" y="-280"/>
                            <mxPoint x="-2160" y="-580"/>
                        </Array>
                    </mxGeometry>
                </mxCell>
                <mxCell id="217" value="&lt;font style=&quot;color: rgb(255, 0, 0);&quot;&gt;OTP&lt;/font&gt;&lt;div&gt;&lt;font style=&quot;color: rgb(255, 0, 0);&quot;&gt;verification&lt;/font&gt;&lt;/div&gt;&lt;div&gt;&lt;font style=&quot;color: rgb(255, 0, 0);&quot;&gt;Failed&lt;/font&gt;&lt;/div&gt;" style="edgeLabel;html=1;align=center;verticalAlign=middle;resizable=0;points=[];" parent="193" vertex="1" connectable="0">
                    <mxGeometry x="-0.1496" relative="1" as="geometry">
                        <mxPoint as="offset"/>
                    </mxGeometry>
                </mxCell>
                <mxCell id="173" value="OTP&lt;div&gt;process&lt;/div&gt;" style="ellipse;whiteSpace=wrap;html=1;verticalAlign=middle;" parent="1" vertex="1">
                    <mxGeometry x="-1830" y="-570" width="80" height="80" as="geometry"/>
                </mxCell>
                <mxCell id="180" style="edgeStyle=none;html=1;entryX=-0.007;entryY=0.398;entryDx=0;entryDy=0;entryPerimeter=0;strokeWidth=2;strokeColor=#00FF00;" parent="1" source="173" target="179" edge="1">
                    <mxGeometry relative="1" as="geometry"/>
                </mxCell>
                <mxCell id="194" value="userId&lt;div&gt;phoneNumber&lt;/div&gt;" style="edgeLabel;html=1;align=center;verticalAlign=middle;resizable=0;points=[];" parent="180" vertex="1" connectable="0">
                    <mxGeometry x="-0.2111" relative="1" as="geometry">
                        <mxPoint as="offset"/>
                    </mxGeometry>
                </mxCell>
                <mxCell id="183" style="edgeStyle=none;html=1;" parent="1" source="181" target="171" edge="1">
                    <mxGeometry relative="1" as="geometry"/>
                </mxCell>
                <mxCell id="181" value="" style="verticalLabelPosition=bottom;verticalAlign=top;html=1;shadow=0;dashed=0;strokeWidth=1;shape=mxgraph.android.phone2;strokeColor=#c0c0c0;" parent="1" vertex="1">
                    <mxGeometry x="-2067.5" y="-740" width="35" height="60" as="geometry"/>
                </mxCell>
                <mxCell id="182" style="edgeStyle=none;html=1;entryX=1.016;entryY=0.329;entryDx=0;entryDy=0;entryPerimeter=0;exitX=0.493;exitY=-0.015;exitDx=0;exitDy=0;exitPerimeter=0;rounded=0;curved=0;" parent="1" source="173" target="181" edge="1">
                    <mxGeometry relative="1" as="geometry">
                        <Array as="points">
                            <mxPoint x="-1791" y="-720"/>
                        </Array>
                    </mxGeometry>
                </mxCell>
                <mxCell id="184" value="sends&lt;div&gt;OTP&lt;/div&gt;&lt;div&gt;to&lt;/div&gt;&lt;div&gt;Mobile&lt;/div&gt;" style="edgeLabel;html=1;align=center;verticalAlign=middle;resizable=0;points=[];" parent="182" vertex="1" connectable="0">
                    <mxGeometry x="-0.5169" y="1" relative="1" as="geometry">
                        <mxPoint as="offset"/>
                    </mxGeometry>
                </mxCell>
                <mxCell id="187" value="" style="edgeStyle=none;orthogonalLoop=1;jettySize=auto;html=1;entryX=0.75;entryY=0.1;entryDx=0;entryDy=0;entryPerimeter=0;" parent="1" target="171" edge="1">
                    <mxGeometry width="80" relative="1" as="geometry">
                        <mxPoint x="-1790" y="-586" as="sourcePoint"/>
                        <mxPoint x="-2000" y="-590" as="targetPoint"/>
                        <Array as="points"/>
                    </mxGeometry>
                </mxCell>
                <mxCell id="188" value="sends&lt;div&gt;Temporary&lt;/div&gt;&lt;div&gt;userId&lt;/div&gt;" style="edgeLabel;html=1;align=center;verticalAlign=middle;resizable=0;points=[];" parent="187" vertex="1" connectable="0">
                    <mxGeometry x="-0.065" y="-1" relative="1" as="geometry">
                        <mxPoint as="offset"/>
                    </mxGeometry>
                </mxCell>
                <mxCell id="189" style="edgeStyle=none;html=1;entryX=0.39;entryY=1.031;entryDx=0;entryDy=0;entryPerimeter=0;rounded=0;curved=0;" parent="1" target="173" edge="1">
                    <mxGeometry relative="1" as="geometry">
                        <mxPoint x="-2090" y="-540" as="sourcePoint"/>
                        <Array as="points">
                            <mxPoint x="-2120" y="-540"/>
                            <mxPoint x="-2120" y="-360"/>
                            <mxPoint x="-1800" y="-360"/>
                        </Array>
                    </mxGeometry>
                </mxCell>
                <mxCell id="191" value="2" style="edgeLabel;html=1;align=center;verticalAlign=middle;resizable=0;points=[];labelBackgroundColor=light-dark(#e5931f, #ededed);" parent="189" vertex="1" connectable="0">
                    <mxGeometry x="-0.9584" y="1" relative="1" as="geometry">
                        <mxPoint as="offset"/>
                    </mxGeometry>
                </mxCell>
                <mxCell id="192" value="userId&lt;div&gt;OTP&lt;/div&gt;" style="edgeLabel;html=1;align=center;verticalAlign=middle;resizable=0;points=[];" parent="189" vertex="1" connectable="0">
                    <mxGeometry x="0.0509" y="1" relative="1" as="geometry">
                        <mxPoint as="offset"/>
                    </mxGeometry>
                </mxCell>
                <mxCell id="216" value="" style="group" parent="1" vertex="1" connectable="0">
                    <mxGeometry x="-1550" y="-600" width="250" height="180" as="geometry"/>
                </mxCell>
                <mxCell id="179" value="" style="shape=cylinder3;whiteSpace=wrap;html=1;boundedLbl=1;backgroundOutline=1;size=15;container=1;" parent="216" vertex="1">
                    <mxGeometry width="250" height="180" as="geometry"/>
                </mxCell>
                <mxCell id="197" value="users" style="shape=table;startSize=30;container=1;collapsible=1;childLayout=tableLayout;fixedRows=1;rowLines=0;fontStyle=1;align=center;resizeLast=1;html=1;" parent="216" vertex="1">
                    <mxGeometry x="30" y="50" width="170" height="100" as="geometry">
                        <mxRectangle x="-1520" y="-550" width="70" height="30" as="alternateBounds"/>
                    </mxGeometry>
                </mxCell>
                <mxCell id="198" value="" style="shape=tableRow;horizontal=0;startSize=0;swimlaneHead=0;swimlaneBody=0;fillColor=none;collapsible=0;dropTarget=0;points=[[0,0.5],[1,0.5]];portConstraint=eastwest;top=0;left=0;right=0;bottom=1;" parent="197" vertex="1">
                    <mxGeometry y="30" width="170" height="30" as="geometry"/>
                </mxCell>
                <mxCell id="199" value="PK" style="shape=partialRectangle;connectable=0;fillColor=none;top=0;left=0;bottom=0;right=0;fontStyle=1;overflow=hidden;whiteSpace=wrap;html=1;" parent="198" vertex="1">
                    <mxGeometry width="30" height="30" as="geometry">
                        <mxRectangle width="30" height="30" as="alternateBounds"/>
                    </mxGeometry>
                </mxCell>
                <mxCell id="200" value="id" style="shape=partialRectangle;connectable=0;fillColor=none;top=0;left=0;bottom=0;right=0;align=left;spacingLeft=6;fontStyle=5;overflow=hidden;whiteSpace=wrap;html=1;" parent="198" vertex="1">
                    <mxGeometry x="30" width="140" height="30" as="geometry">
                        <mxRectangle width="140" height="30" as="alternateBounds"/>
                    </mxGeometry>
                </mxCell>
                <mxCell id="201" value="" style="shape=tableRow;horizontal=0;startSize=0;swimlaneHead=0;swimlaneBody=0;fillColor=none;collapsible=0;dropTarget=0;points=[[0,0.5],[1,0.5]];portConstraint=eastwest;top=0;left=0;right=0;bottom=0;" parent="197" vertex="1">
                    <mxGeometry y="60" width="170" height="40" as="geometry"/>
                </mxCell>
                <mxCell id="202" value="" style="shape=partialRectangle;connectable=0;fillColor=none;top=0;left=0;bottom=0;right=0;editable=1;overflow=hidden;whiteSpace=wrap;html=1;" parent="201" vertex="1">
                    <mxGeometry width="30" height="40" as="geometry">
                        <mxRectangle width="30" height="40" as="alternateBounds"/>
                    </mxGeometry>
                </mxCell>
                <mxCell id="203" value="phone_number" style="shape=partialRectangle;connectable=0;fillColor=none;top=0;left=0;bottom=0;right=0;align=left;spacingLeft=6;overflow=hidden;whiteSpace=wrap;html=1;" parent="201" vertex="1">
                    <mxGeometry x="30" width="140" height="40" as="geometry">
                        <mxRectangle width="140" height="40" as="alternateBounds"/>
                    </mxGeometry>
                </mxCell>
            </root>
        </mxGraphModel>
    </diagram>
</mxfile>